<?xml version="1.0" encoding="utf-8"?>
<svg version="1.1" xmlns:xlink="http://www.w3.org/1999/xlink" width="444px" height="564px" xmlns="http://www.w3.org/2000/svg">
  <g transform="matrix(1 0 0 1 -20 -20 )">
    <path d="M 20 20  L 464 20  L 464 584  L 20 584  L 20 20  " fill-rule="nonzero" fill="#cccccc" stroke="none" />
    <path d="M 51 51  L 433 51  L 433 553  L 51 553  L 51 51  " fill-rule="nonzero" fill="#ffffff" stroke="none" />
    <path d="M 284.18 171.2  C 265.532 171.2  250.88 156.548  250.88 137.9  C 250.88 119.252  265.532 104.6  284.18 104.6  C 302.828 104.6  317.48 119.252  317.48 137.9  C 317.48 156.548  302.828 171.2  284.18 171.2  " fill-rule="nonzero" fill="#cccccc" stroke="none" />
    <path d="M 62 542  L 62 278  L 152 158  L 278 254  L 350 230  L 422 254  L 422 542  L 62 542  " fill-rule="nonzero" fill="#169bd5" stroke="none" />
  </g>
</svg>