<?xml version="1.0" encoding="utf-8"?>
<svg version="1.1" xmlns:xlink="http://www.w3.org/1999/xlink" width="127px" height="181px" xmlns="http://www.w3.org/2000/svg">
  <g transform="matrix(1 0 0 1 -157 -173 )">
    <path d="M 157 173  L 284 173  L 284 354  L 157 354  L 157 173  " fill-rule="nonzero" fill="#cccccc" stroke="none" />
    <path d="M 166 182  L 275 182  L 275 345  L 166 345  L 166 182  " fill-rule="nonzero" fill="#ffffff" stroke="none" />
    <path d="M 232.565 219.2  C 227.231 219.2  223.04 215.009  223.04 209.675  C 223.04 204.341  227.231 200.15  232.565 200.15  C 237.899 200.15  242.09 204.341  242.09 209.675  C 242.09 215.009  237.899 219.2  232.565 219.2  " fill-rule="nonzero" fill="#cccccc" stroke="none" />
    <path d="M 169 342  L 169 255.65  L 194.75 216.4  L 230.8 247.8  L 251.4 239.95  L 272 247.8  L 272 342  L 169 342  " fill-rule="nonzero" fill="#169bd5" stroke="none" />
  </g>
</svg>