<?xml version="1.0" encoding="utf-8"?>
<svg version="1.1" xmlns:xlink="http://www.w3.org/1999/xlink" width="127px" height="181px" xmlns="http://www.w3.org/2000/svg">
  <g transform="matrix(1 0 0 1 -157 -345 )">
    <path d="M 157 345  L 284 345  L 284 526  L 157 526  L 157 345  " fill-rule="nonzero" fill="#cccccc" stroke="none" />
    <path d="M 166 354  L 275 354  L 275 517  L 166 517  L 166 354  " fill-rule="nonzero" fill="#ffffff" stroke="none" />
    <path d="M 232.565 391.2  C 227.231 391.2  223.04 387.009  223.04 381.675  C 223.04 376.341  227.231 372.15  232.565 372.15  C 237.899 372.15  242.09 376.341  242.09 381.675  C 242.09 387.009  237.899 391.2  232.565 391.2  " fill-rule="nonzero" fill="#cccccc" stroke="none" />
    <path d="M 169 514  L 169 427.65  L 194.75 388.4  L 230.8 419.8  L 251.4 411.95  L 272 419.8  L 272 514  L 169 514  " fill-rule="nonzero" fill="#169bd5" stroke="none" />
  </g>
</svg>