<?xml version="1.0" encoding="utf-8"?>
<svg version="1.1" xmlns:xlink="http://www.w3.org/1999/xlink" width="9px" height="9px" xmlns="http://www.w3.org/2000/svg">
  <g transform="matrix(1 0 0 1 -276 -170 )">
    <path d="M 1.1928 0.261599999999997  L 4.4928 3.5616  L 7.7928 0.261599999999997  C 8.052 0.00240000000000097  8.4744 0.00240000000000097  8.736 0.261599999999997  C 8.9952 0.520799999999998  8.9952 0.943200000000001  8.736 1.2048  L 5.4336 4.5048  L 8.7336 7.8048  C 8.99280000000001 8.064  8.99280000000001 8.4864  8.7336 8.748  C 8.4744 9.0096  8.052 9.0072  7.79040000000001 8.748  L 4.4928 5.448  L 1.1928 8.748  C 0.933600000000002 9.0072  0.511199999999999 9.0072  0.249600000000002 8.748  C -0.00959999999999894 8.4888  -0.00959999999999894 8.0664  0.249600000000002 7.8048  L 3.5496 4.5048  L 0.249600000000002 1.2048  C -0.00959999999999894 0.945600000000002  -0.00959999999999894 0.523199999999999  0.249600000000002 0.261599999999997  C 0.508799999999998 0.00240000000000097  0.931200000000001 0.00240000000000097  1.1928 0.261599999999997  Z " fill-rule="nonzero" fill="#323233" stroke="none" transform="matrix(1 0 0 1 276 170 )" />
  </g>
</svg>