<?xml version="1.0" encoding="utf-8"?>
<svg version="1.1" xmlns:xlink="http://www.w3.org/1999/xlink" width="20px" height="20px" xmlns="http://www.w3.org/2000/svg">
  <g transform="matrix(1 0 0 1 -270 -164 )">
    <path d="M 1.26680701754386 10  C 1.26680701754386 14.8235789473684  5.17642105263158 18.7331929824561  10 18.7331929824561  C 14.8235789473684 18.7331929824561  18.7331929824561 14.8235789473684  18.7331929824561 10  C 18.7331929824561 5.17642105263158  14.8235789473684 1.26680701754386  10 1.26680701754386  C 5.17642105263158 1.26680701754386  1.26680701754386 5.17642105263158  1.26680701754386 10  Z M 19.9795087719298 10  C 19.9795087719298 15.5107368421053  15.5129824561403 19.9795087719298  10 19.9795087719298  C 4.48701754385965 19.9795087719298  0.0204912280701753 15.5107368421053  0.0204912280701753 10  C 0.0204912280701753 4.48926315789474  4.48701754385965 0.0204912280701753  10 0.0204912280701753  C 15.5129824561403 0.0204912280701753  19.9795087719298 4.48926315789474  19.9795087719298 10  Z " fill-rule="nonzero" fill="#323233" stroke="none" transform="matrix(1 0 0 1 270 164 )" />
  </g>
</svg>