<?xml version="1.0" encoding="utf-8"?>
<svg version="1.1" xmlns:xlink="http://www.w3.org/1999/xlink" width="127px" height="114px" xmlns="http://www.w3.org/2000/svg">
  <g transform="matrix(1 0 0 1 -157 -173 )">
    <path d="M 157 173  L 284 173  L 284 287  L 157 287  L 157 173  " fill-rule="nonzero" fill="#cccccc" stroke="none" />
    <path d="M 165 181  L 276 181  L 276 279  L 165 279  L 165 181  " fill-rule="nonzero" fill="#ffffff" stroke="none" />
    <path d="M 231.59 207.2  C 226.802 207.2  223.04 203.438  223.04 198.65  C 223.04 193.862  226.802 190.1  231.59 190.1  C 236.378 190.1  240.14 193.862  240.14 198.65  C 240.14 203.438  236.378 207.2  231.59 207.2  " fill-rule="nonzero" fill="#cccccc" stroke="none" />
    <path d="M 168 276  L 168 225.4  L 194.25 202.4  L 231 226.450393700787  L 252 216.2  L 273 226.450393700787  L 273 276  L 168 276  " fill-rule="nonzero" fill="#169bd5" stroke="none" />
  </g>
</svg>